<svg xmlns="http://www.w3.org/2000/svg" viewBox="0 0 188.35 62.58"><defs><style>.cls-1{fill:#FFF;}</style></defs><title>Recurso 3</title><g id="Capa_2" data-name="Capa 2"><g id="Capa_1-2" data-name="Capa 1"><path class="cls-1" d="M65.8,25.2a1.48,1.48,0,0,1-3,0V13.31a10.34,10.34,0,0,0-20.68,0V25.17a1.49,1.49,0,0,1-1.46,1.49,1.45,1.45,0,0,1-1.49-1.49l0-11.86a13.28,13.28,0,0,1,26.56,0Z"/><path class="cls-1" d="M92.57,25.17a1.49,1.49,0,0,1-1.49,1.49H83.32A13.33,13.33,0,0,1,83.32,0h7.76a1.5,1.5,0,0,1,0,3H83.32a10.32,10.32,0,0,0-10.25,8.9H86.66a1.5,1.5,0,1,1,0,3H73.1a10.21,10.21,0,0,0,10.22,8.83h7.76A1.47,1.47,0,0,1,92.57,25.17Z"/><path class="cls-1" d="M96.67,13.35A13.32,13.32,0,1,1,110,26.66,13.34,13.34,0,0,1,96.67,13.35Zm3,0A10.36,10.36,0,1,0,110,3,10.39,10.39,0,0,0,99.63,13.35Z"/><path class="cls-1" d="M154.17,25.2a1.48,1.48,0,0,1-1.5,1.46,1.46,1.46,0,0,1-1.45-1.46V13.31a10.35,10.35,0,0,0-20.69,0V25.17a1.49,1.49,0,0,1-1.46,1.49,1.45,1.45,0,0,1-1.49-1.49l0-11.86a13.28,13.28,0,0,1,26.56,0Z"/><path class="cls-1" d="M23.69,48.43A13.54,13.54,0,0,1,10.17,62H1.52A1.51,1.51,0,0,1,0,60.54V36.4a1.53,1.53,0,0,1,1.49-1.52A1.56,1.56,0,0,1,3,36.4V59h7.16A10.57,10.57,0,0,0,20.72,48.43V36.37a1.46,1.46,0,0,1,1.45-1.49,1.5,1.5,0,0,1,1.52,1.49Z"/><path class="cls-1" d="M56.74,60.46A1.52,1.52,0,0,1,55.22,62a1.49,1.49,0,0,1-1.48-1.49l0-10.54h-21c0,3.6,0,6.9,0,10.51A1.5,1.5,0,0,1,31.2,62a1.48,1.48,0,0,1-1.52-1.52l0-12.07a13.52,13.52,0,1,1,27,0ZM53.62,46.91a10.52,10.52,0,0,0-20.83,0Z"/><path class="cls-1" d="M99.47,60.46c0-10.69-.08-11.73-.08-12A1.56,1.56,0,0,1,100.92,47h12.51A4.57,4.57,0,0,0,118,42.46a4.66,4.66,0,0,0-4.57-4.54H100.92a1.52,1.52,0,0,1-1.53-1.48,1.55,1.55,0,0,1,1.53-1.52h12.51a7.52,7.52,0,0,1,5.38,2.26h0A7.46,7.46,0,0,1,121,42.46,7.54,7.54,0,0,1,113.43,50h-11V60.46a1.51,1.51,0,0,1-3,0Z"/><path class="cls-1" d="M127.36,60.46V36.35a1.56,1.56,0,0,1,1.53-1.52,1.52,1.52,0,0,1,1.48,1.52V60.46A1.49,1.49,0,0,1,128.89,62,1.53,1.53,0,0,1,127.36,60.46Z"/><path class="cls-1" d="M138.6,60.46c0-10.69-.07-11.73-.07-12A1.55,1.55,0,0,1,140.05,47h12.51a4.57,4.57,0,0,0,4.53-4.52,4.66,4.66,0,0,0-4.57-4.54H140.05a1.51,1.51,0,0,1-1.52-1.48,1.55,1.55,0,0,1,1.52-1.52h12.51A7.55,7.55,0,0,1,158,37.18h0a7.46,7.46,0,0,1,2.19,5.28A7.54,7.54,0,0,1,152.56,50H141.61V60.46a1.51,1.51,0,0,1-3,0Zm17.84.86L150.09,50.1a1.5,1.5,0,0,1,.52-2.09,1.45,1.45,0,0,1,2,.55L159,59.79a1.46,1.46,0,0,1-.47,2A1.5,1.5,0,0,1,156.44,61.32Z"/><path class="cls-1" d="M186.9,37.81H167a1.5,1.5,0,0,1-1.53-1.52A1.47,1.47,0,0,1,167,34.84H186.9a1.43,1.43,0,0,1,1.45,1.45A1.46,1.46,0,0,1,186.9,37.81Zm0,12.11H167a1.53,1.53,0,0,1-1.53-1.52A1.5,1.5,0,0,1,167,46.91H186.9a1.46,1.46,0,0,1,1.45,1.49A1.49,1.49,0,0,1,186.9,49.92Zm0,12.07H167a1.54,1.54,0,0,1-1.53-1.53A1.5,1.5,0,0,1,167,59H186.9a1.46,1.46,0,0,1,1.45,1.48A1.49,1.49,0,0,1,186.9,62Z"/><path class="cls-1" d="M91.25,62.58a1.5,1.5,0,0,1-1.5-1.5V39.53L79.41,50a1.5,1.5,0,0,1-2.12,0L66.51,39.45v21.1a1.5,1.5,0,1,1-3,0V35.89a1.49,1.49,0,0,1,.92-1.38,1.52,1.52,0,0,1,1.63.31l12.26,12,11.87-12a1.49,1.49,0,0,1,1.63-.33,1.51,1.51,0,0,1,.93,1.39V61.08A1.5,1.5,0,0,1,91.25,62.58Z"/></g></g></svg>
