<?xml version="1.0" encoding="utf-8"?>
<!-- Generator: Adobe Illustrator 23.0.4, SVG Export Plug-In . SVG Version: 6.00 Build 0)  -->
<svg version="1.1" xmlns="http://www.w3.org/2000/svg" xmlns:xlink="http://www.w3.org/1999/xlink" x="0px" y="0px"
	 viewBox="0 0 1920 1080" xml:space="preserve">
<style type="text/css">
	.st0{fill:#22262C;}
	.st1{fill:#23D0E2;}
</style>
	<g>
		<g>
			<path class="st1" d="M359.3,618.4v-75.1h56.3v37.5l56.3,56.3v-93.9h56.3v244L359.3,618.4z"/>
			<path class="st1" d="M547,749.8V543.3h169v206.5h-56.3v-75.1h-56.3v75.1H547z M659.6,618.4v-18.8h-56.3v18.8H659.6z"/>
			<path class="st1" d="M734.7,749.8V524.5l93.9,93.9l93.9-93.9v225.3h-56.3v-75.1l-37.5,37.5L791,674.7v75.1H734.7z"/>
			<path class="st1" d="M941.2,749.8V543.3h169v131.4H997.5v75.1H941.2z M1053.9,618.4v-18.8h-56.3v18.8H1053.9z"/>
			<path class="st1" d="M1129,749.8V543.3h56.3v206.5H1129z"/>
			<path class="st1" d="M1260.4,674.7v75.1H1204V543.3h169v131.4h-37.5l37.5,37.5v75.1L1260.4,674.7z M1316.7,618.4v-18.8h-56.3
				v18.8H1316.7z"/>
			<path class="st1" d="M1391.8,749.8V543.3h169v56.3h-112.6v18.8h112.6v56.3h-112.6v18.8h112.6v56.3H1391.8z"/>
		</g>
		<g>
			<path class="st1" d="M733.5,477.6c0,6-5,10.7-11,10.7c-5.7,0-10.7-4.7-10.7-10.7v-87.2c0-41.5-34.2-75.8-75.8-75.8
				c-41.8,0-76,34.2-76,75.8v87c0,6-5,11-10.7,11c-6.5,0-11-5-11-11l0.3-87c0-53.6,43.6-97.4,97.4-97.4c53.5,0,97.4,43.9,97.4,97.4
				V477.6z"/>
			<path class="st1" d="M929.9,477.4c0,6-5,11-11,11h-57c-53.8,0-97.7-43.9-97.7-97.7c0-54.1,43.9-98,97.7-98h57c6,0,11,5,11,11
				s-5,11-11,11h-57c-38.1,0-70.3,28.2-75.2,65.3h99.8c6,0,11,5,11,11s-5,11-11,11H787c5,37.1,36.6,64.8,75,64.8c0.3,0,57,0,57,0
				C924.9,466.6,929.9,471.3,929.9,477.4z"/>
			<path class="st1" d="M959.8,390.6c0-53.8,43.9-97.7,97.7-97.7c53.8,0,97.7,43.9,97.7,97.7s-43.9,97.7-97.7,97.7
				C1003.7,488.3,959.8,444.4,959.8,390.6z M981.5,390.6c0,41.8,34.2,76,76,76c41.8,0,76-34.2,76-76s-34.2-76-76-76
				C1015.7,314.6,981.5,348.8,981.5,390.6z"/>
			<path class="st1" d="M1381.7,477.6c0,6-5,10.7-11,10.7c-5.7,0-10.7-4.7-10.7-10.7v-87.2c0-41.5-34.2-75.8-75.8-75.8
				c-41.8,0-76,34.2-76,75.8v87c0,6-5,11-10.7,11c-6.5,0-11-5-11-11l0.3-87c0-53.6,43.6-97.4,97.4-97.4c53.5,0,97.4,43.9,97.4,97.4
				V477.6z"/>
		</g>
	</g>
</svg>
